<svg width="10" height="10" viewBox="0 0 10 10" fill="none" xmlns="http://www.w3.org/2000/svg">
<path d="M8.33331 4.47476C8.43616 5.1683 8.31769 5.87661 7.99478 6.49894C7.67186 7.12127 7.16093 7.62594 6.53467 7.94116C5.9084 8.25637 5.19869 8.36609 4.50647 8.25471C3.81425 8.14332 3.17478 7.8165 2.67901 7.32073C2.18324 6.82496 1.85642 6.18549 1.74504 5.49327C1.63365 4.80106 1.74337 4.09134 2.05858 3.46507C2.3738 2.83881 2.87847 2.32788 3.5008 2.00496C4.12313 1.68205 4.83144 1.56359 5.52498 1.66643C6.23242 1.77133 6.88736 2.10098 7.39306 2.60669C7.89876 3.11239 8.22841 3.76733 8.33331 4.47476Z" stroke="white" stroke-width="1.66667" stroke-linecap="round" stroke-linejoin="round"/>
</svg>
