<svg width="16" height="16" viewBox="0 0 16 16" fill="none" xmlns="http://www.w3.org/2000/svg">
<path d="M9.5795 3.16475C9.7877 3.26879 10.0173 3.32295 10.25 3.32295C10.4827 3.32295 10.7123 3.26879 10.9205 3.16475L13.6648 1.79225C13.7792 1.73507 13.9063 1.70811 14.0341 1.71393C14.1619 1.71975 14.2861 1.75815 14.3948 1.8255C14.5036 1.89284 14.5933 1.98689 14.6555 2.09869C14.7177 2.21049 14.7502 2.33633 14.75 2.46425V12.0373C14.7499 12.1765 14.7111 12.313 14.6378 12.4314C14.5646 12.5498 14.4598 12.6455 14.3353 12.7078L10.9205 14.4155C10.7123 14.5195 10.4827 14.5737 10.25 14.5737C10.0173 14.5737 9.7877 14.5195 9.5795 14.4155L6.4205 12.836C6.2123 12.732 5.98275 12.6778 5.75 12.6778C5.51726 12.6778 5.2877 12.732 5.0795 12.836L2.33525 14.2085C2.22077 14.2657 2.09354 14.2927 1.96569 14.2868C1.83784 14.281 1.71362 14.2425 1.60484 14.1751C1.49606 14.1076 1.40635 14.0135 1.34424 13.9016C1.28213 13.7897 1.24969 13.6637 1.25 13.5358V3.9635C1.25008 3.82425 1.28891 3.68778 1.36217 3.56936C1.43542 3.45093 1.54019 3.35524 1.66475 3.293L5.0795 1.58525C5.2877 1.48121 5.51726 1.42705 5.75 1.42705C5.98275 1.42705 6.2123 1.48121 6.4205 1.58525L9.5795 3.16475Z" stroke="#9CA3AF" stroke-width="1.5" stroke-linecap="round" stroke-linejoin="round"/>
</svg>
