<svg width="12" height="12" viewBox="0 0 12 12" fill="none" xmlns="http://www.w3.org/2000/svg">
<path d="M7.2285 2.23924C7.39043 2.32016 7.56898 2.36228 7.75 2.36228C7.93103 2.36228 8.10957 2.32016 8.2715 2.23924L10.4059 1.17174C10.4949 1.12727 10.5938 1.10629 10.6932 1.11082C10.7926 1.11535 10.8892 1.14522 10.9738 1.1976C11.0584 1.24998 11.1281 1.32312 11.1765 1.41008C11.2248 1.49703 11.2501 1.59491 11.25 1.69441V9.14007C11.2499 9.24837 11.2197 9.35452 11.1628 9.44663C11.1058 9.53873 11.0243 9.61316 10.9274 9.66157L8.2715 10.9898C8.10957 11.0707 7.93103 11.1129 7.75 11.1129C7.56898 11.1129 7.39043 11.0707 7.2285 10.9898L4.7715 9.76132C4.60957 9.6804 4.43103 9.63828 4.25 9.63828C4.06898 9.63828 3.89043 9.6804 3.7285 9.76132L1.59409 10.8288C1.50504 10.8733 1.40609 10.8943 1.30665 10.8897C1.20721 10.8852 1.11059 10.8553 1.02599 10.8028C0.941381 10.7504 0.871604 10.6771 0.823296 10.5901C0.774988 10.5031 0.749756 10.4051 0.750002 10.3056V2.86049C0.75006 2.75219 0.780267 2.64604 0.837241 2.55393C0.894214 2.46183 0.975705 2.3874 1.07259 2.33899L3.7285 1.01074C3.89043 0.929821 4.06898 0.887695 4.25 0.887695C4.43103 0.887695 4.60957 0.929821 4.7715 1.01074L7.2285 2.23924Z" stroke="#6B7280" stroke-width="1.16667" stroke-linecap="round" stroke-linejoin="round"/>
</svg>
